<?xml version="1.0" encoding="iso-8859-1"?>
<!-- Generator: Adobe Illustrator 19.0.0, SVG Export Plug-In . SVG Version: 6.00 Build 0)  -->
<svg xmlns="http://www.w3.org/2000/svg" xmlns:xlink="http://www.w3.org/1999/xlink" version="1.1" id="Layer_1" x="0px" y="0px" viewBox="0 0 512 512" style="enable-background:new 0 0 512 512;" xml:space="preserve" width="512px" height="512px">
<g>
	<g>
		<circle cx="83.38" cy="404.39" r="10" fill="#FFFFFF"/>
	</g>
</g>
<g>
	<g>
		<path d="M505.572,335.174c-8.646-19.579-31.61-28.476-51.189-19.832c-0.05,0.022-0.1,0.045-0.149,0.067l-64.508,29.749    c-5.015,2.313-7.206,8.254-4.893,13.269c2.313,5.016,8.252,7.204,13.269,4.894l64.422-29.71    c9.478-4.144,20.571,0.171,24.753,9.643c2.03,4.599,2.148,9.712,0.333,14.398c-1.815,4.686-5.348,8.386-9.947,10.416    l-132.01,58.286c-20.884,9.222-44.587,8.686-65.033-1.473l-48.323-24.008c-25.781-12.809-55.674-13.485-82.009-1.858l-0.834,0.369    l-36.012-81.563l50.022-22.086c23.855-10.535,50.476-11.385,74.953-2.395l97.174,35.686c8.801,3.232,13.492,13.079,10.457,21.95    c-3.093,9.039-12.973,13.902-22.021,10.842L248.881,336.4c-5.232-1.771-10.907,1.037-12.677,6.269    c-1.77,5.232,1.037,10.907,6.269,12.677l75.145,25.417c3.95,1.336,7.969,1.97,11.928,1.97c15.55,0,30.125-9.79,35.425-25.283    c6.525-19.074-3.562-40.247-22.485-47.197l-97.174-35.686c-29.369-10.786-61.304-9.766-89.926,2.871l-50.362,22.236    c-2.851-4.341-6.949-7.698-11.888-9.611c-6.263-2.428-13.094-2.27-19.237,0.443L9.57,318.908c-3.614,1.596-5.95,5.17-5.961,9.12    L3.121,501.972c-0.01,3.479,1.789,6.712,4.749,8.538c1.604,0.99,3.426,1.49,5.252,1.49c1.542,0,3.087-0.356,4.509-1.074    l125.841-63.571c6.013-2.736,10.63-7.626,13.021-13.797c1.979-5.105,2.239-10.59,0.797-15.771l1.076-0.475    c20.885-9.222,44.587-8.685,65.033,1.474l48.323,24.008c25.783,12.809,55.674,13.483,82.009,1.857l132.01-58.286    C505.321,377.719,514.218,354.755,505.572,335.174z M137.843,426.333c-0.496,1.28-1.461,2.29-2.717,2.845    c-0.159,0.07-111.959,56.544-111.959,56.544l0.121-42.993l28.966-14.224c4.958-2.435,7.003-8.427,4.568-13.384    c-2.434-4.959-8.427-7.003-13.384-4.569l-20.088,9.864l0.241-85.835l58.386-25.779c1.256-0.553,2.653-0.587,3.933-0.091    c1.281,0.496,2.292,1.462,2.846,2.718L137.753,422.4C138.307,423.655,138.339,425.053,137.843,426.333z" fill="#FFFFFF"/>
	</g>
</g>
<g>
	<g>
		<path d="M375.706,125.522h-6.924h-4.492h-6.924c-6.869,0-12.458-5.589-12.458-12.458v-10.667c0-6.869,5.588-12.458,12.458-12.458    h20.32c5.778,0,10.478,4.7,10.478,10.478c0,5.522,4.477,10,10,10s10-4.478,10-10c0-16.806-13.672-30.478-30.478-30.478h-1.149    V57.763c0-5.522-4.477-10-10-10s-10,4.478-10,10V69.96c-17.514,0.443-31.628,14.818-31.628,32.437v10.667    c0,17.897,14.561,32.458,32.458,32.458h6.924h4.492h6.924c6.869,0,12.458,5.588,12.458,12.457v10.668    c0,6.87-5.589,12.457-12.458,12.457h-20.32c-5.778,0-10.478-4.7-10.478-10.478c0-5.522-4.477-10-10-10s-10,4.478-10,10    c0,16.806,13.672,30.478,30.478,30.478h1.15v12.178c0,5.522,4.477,10,10,10s10-4.478,10-10v-12.199    c17.514-0.443,31.627-14.818,31.627-32.436v-10.668C408.164,140.083,393.603,125.522,375.706,125.522z" fill="#FFFFFF"/>
	</g>
</g>
<g>
	<g>
		<path d="M366.537,0c-74.888,0-135.813,60.926-135.813,135.813s60.926,135.814,135.813,135.814    c74.888,0,135.813-60.926,135.813-135.813S441.425,0,366.537,0z M366.537,251.626c-63.86,0-115.813-51.954-115.813-115.813    S302.677,20,366.537,20c63.859,0,115.813,51.954,115.813,115.813S430.396,251.626,366.537,251.626z" fill="#FFFFFF"/>
	</g>
</g>
<g>
</g>
<g>
</g>
<g>
</g>
<g>
</g>
<g>
</g>
<g>
</g>
<g>
</g>
<g>
</g>
<g>
</g>
<g>
</g>
<g>
</g>
<g>
</g>
<g>
</g>
<g>
</g>
<g>
</g>
</svg>
