<?xml version="1.0" encoding="iso-8859-1"?>
<!-- Generator: Adobe Illustrator 16.0.0, SVG Export Plug-In . SVG Version: 6.00 Build 0)  -->
<!DOCTYPE svg PUBLIC "-//W3C//DTD SVG 1.1//EN" "http://www.w3.org/Graphics/SVG/1.1/DTD/svg11.dtd">
<svg xmlns="http://www.w3.org/2000/svg" xmlns:xlink="http://www.w3.org/1999/xlink" version="1.1" id="Capa_1" x="0px" y="0px" width="512px" height="512px" viewBox="0 0 512 512" style="enable-background:new 0 0 512 512;" xml:space="preserve">
<g>
	<path d="M256,0C114.609,0,0,114.609,0,256c0,141.391,114.609,256,256,256c141.391,0,256-114.609,256-256   C512,114.609,397.391,0,256,0z M256,472c-119.297,0-216-96.703-216-216S136.703,40,256,40s216,96.703,216,216S375.297,472,256,472z   " fill="#FFFFFF"/>
	<g>
		<g>
			<path d="M227.391,332.562c-4.703-2.734-7.922-6.375-9.656-10.97c-1.734-4.562-5.453-14.905-5.453-31.016v-45.172h67.594v-48.562     h-67.594V128h-28.375c-1.812,14.344-2.234,19.062-7,28.359c-4.781,9.281-11.125,21.484-19.031,28.109     c-7.876,6.626-18.798,13.11-29.876,16.657v44.281h32.594v71.375c0,12.719,1.344,22.406,4.047,29.094     c2.703,6.703,7.547,13.016,14.547,18.953c6.984,5.922,22.469,13.719,22.469,13.719s12.438,4.812,25.312,4.812     c11.344,0,21.922-1.125,31.688-3.375c9.766-2.25,24.266-7.594,36.312-13.203v-43.812c-14.125,9.141-31.938,15.125-46.172,15.125     C240.75,338.094,233.625,336.25,227.391,332.562z M349.141,315.266c-19.233,0-34.858,15.392-34.858,34.375     c0,18.984,15.624,34.359,34.858,34.359C368.376,384,384,368.625,384,349.641C384,330.657,368.375,315.266,349.141,315.266z" fill="#FFFFFF"/>
		</g>
	</g>
</g>
<g>
</g>
<g>
</g>
<g>
</g>
<g>
</g>
<g>
</g>
<g>
</g>
<g>
</g>
<g>
</g>
<g>
</g>
<g>
</g>
<g>
</g>
<g>
</g>
<g>
</g>
<g>
</g>
<g>
</g>
</svg>
